<mxfile host="app.diagrams.net" agent="Mozilla/5.0 (Windows NT 10.0; Win64; x64) AppleWebKit/537.36 (KHTML, like Gecko) Chrome/138.0.0.0 Safari/537.36" version="28.0.6">
  <diagram name="Page-1" id="1nqs1TteoxM5PMixbOjN">
    <mxGraphModel grid="1" page="1" gridSize="10" guides="1" tooltips="1" connect="1" arrows="1" fold="1" pageScale="1" pageWidth="850" pageHeight="1100" math="0" shadow="0">
      <root>
        <mxCell id="0" />
        <mxCell id="1" parent="0" />
        <mxCell id="itmVy81XmjJllifuAnmB-1" value="" style="rounded=1;whiteSpace=wrap;html=1;fillColor=none;" vertex="1" parent="1">
          <mxGeometry x="340" y="60" width="90" height="130" as="geometry" />
        </mxCell>
        <mxCell id="yTwchnVELSRqIbRHBMvh-5" value="LSTM" style="rounded=0;whiteSpace=wrap;html=1;fontSize=14;fontFamily=Times New Roman;fillColor=#f5f5f5;fontColor=#333333;strokeColor=#666666;" vertex="1" parent="1">
          <mxGeometry x="359" y="85" width="50" height="40" as="geometry" />
        </mxCell>
        <mxCell id="yTwchnVELSRqIbRHBMvh-6" value="CNN" style="rounded=0;whiteSpace=wrap;html=1;fontSize=14;fontFamily=Times New Roman;fillColor=#e1d5e7;strokeColor=#9673a6;" vertex="1" parent="1">
          <mxGeometry x="359" y="125" width="50" height="40" as="geometry" />
        </mxCell>
        <mxCell id="yTwchnVELSRqIbRHBMvh-1" value="Weather Data&lt;br&gt;Google Earth Engine" style="rounded=0;whiteSpace=wrap;html=1;fontSize=14;fontFamily=Times New Roman;fillColor=#fff2cc;strokeColor=#d6b656;" vertex="1" parent="1">
          <mxGeometry x="80" y="40" width="130" height="40" as="geometry" />
        </mxCell>
        <mxCell id="yTwchnVELSRqIbRHBMvh-2" value="Disaster Data&lt;div&gt;&lt;span id=&quot;docs-internal-guid-3253ce96-7fff-de38-85f3-a78d56d46090&quot;&gt;&lt;span style=&quot;background-color: transparent; font-variant-numeric: normal; font-variant-east-asian: normal; font-variant-alternates: normal; font-variant-position: normal; font-variant-emoji: normal; vertical-align: baseline; white-space-collapse: preserve;&quot;&gt;OCHA&lt;/span&gt;&lt;/span&gt;&lt;/div&gt;" style="rounded=0;whiteSpace=wrap;html=1;fontSize=14;fontFamily=Times New Roman;fillColor=#dae8fc;strokeColor=#6c8ebf;" vertex="1" parent="1">
          <mxGeometry x="80" y="100" width="130" height="40" as="geometry" />
        </mxCell>
        <mxCell id="yTwchnVELSRqIbRHBMvh-3" value="&lt;div&gt;&lt;span id=&quot;docs-internal-guid-595cde14-7fff-f23b-11f6-7fd3064b3416&quot;&gt;&lt;span style=&quot;background-color: transparent; font-variant-numeric: normal; font-variant-east-asian: normal; font-variant-alternates: normal; font-variant-position: normal; font-variant-emoji: normal; vertical-align: baseline; white-space-collapse: preserve;&quot;&gt;Sattelite Images&lt;br&gt;CIMSS&lt;/span&gt;&lt;/span&gt;&lt;/div&gt;" style="rounded=0;whiteSpace=wrap;html=1;fontSize=14;fontFamily=Times New Roman;fillColor=#d5e8d4;strokeColor=#82b366;" vertex="1" parent="1">
          <mxGeometry x="80" y="160" width="130" height="40" as="geometry" />
        </mxCell>
        <mxCell id="yTwchnVELSRqIbRHBMvh-4" value="Preprocessing&lt;div&gt;and Merging&lt;/div&gt;" style="rounded=0;whiteSpace=wrap;html=1;fontSize=14;fontFamily=Times New Roman;fillColor=#f8cecc;strokeColor=#b85450;" vertex="1" parent="1">
          <mxGeometry x="230" y="100" width="90" height="40" as="geometry" />
        </mxCell>
        <mxCell id="yTwchnVELSRqIbRHBMvh-7" value="Training and Testing&lt;div&gt;Evaluation&lt;/div&gt;" style="rounded=0;whiteSpace=wrap;html=1;fontSize=14;fontFamily=Times New Roman;fillColor=#fff2cc;strokeColor=#d6b656;" vertex="1" parent="1">
          <mxGeometry x="450" y="90" width="80" height="60" as="geometry" />
        </mxCell>
        <mxCell id="yTwchnVELSRqIbRHBMvh-9" value="Hazard Prediction" style="rounded=0;whiteSpace=wrap;html=1;fontSize=14;fontFamily=Times New Roman;fillColor=#f8cecc;strokeColor=#b85450;" vertex="1" parent="1">
          <mxGeometry x="650" y="98" width="70" height="40" as="geometry" />
        </mxCell>
        <mxCell id="yTwchnVELSRqIbRHBMvh-10" value="&lt;div&gt;7 Days&lt;/div&gt;Current Weather&lt;br&gt;Sattelite Images" style="rounded=0;whiteSpace=wrap;html=1;fontSize=12;fontFamily=Times New Roman;fillColor=#d5e8d4;strokeColor=#82b366;" vertex="1" parent="1">
          <mxGeometry x="540" y="178" width="100" height="50" as="geometry" />
        </mxCell>
        <mxCell id="yTwchnVELSRqIbRHBMvh-11" value="Trained&lt;div&gt;AI &lt;br&gt;Model&lt;/div&gt;" style="shape=hexagon;perimeter=hexagonPerimeter2;whiteSpace=wrap;html=1;fixedSize=1;fontSize=14;fontFamily=Times New Roman;fillColor=#dae8fc;strokeColor=#6c8ebf;" vertex="1" parent="1">
          <mxGeometry x="550" y="87.5" width="80" height="65" as="geometry" />
        </mxCell>
        <mxCell id="yTwchnVELSRqIbRHBMvh-12" value="" style="endArrow=blockThin;html=1;rounded=0;strokeWidth=2;endFill=1;" edge="1" parent="1">
          <mxGeometry width="50" height="50" relative="1" as="geometry">
            <mxPoint x="210" y="120" as="sourcePoint" />
            <mxPoint x="230" y="120" as="targetPoint" />
          </mxGeometry>
        </mxCell>
        <mxCell id="yTwchnVELSRqIbRHBMvh-13" value="" style="endArrow=blockThin;html=1;rounded=0;strokeWidth=2;endFill=1;" edge="1" parent="1">
          <mxGeometry width="50" height="50" relative="1" as="geometry">
            <mxPoint x="321" y="120" as="sourcePoint" />
            <mxPoint x="341" y="120" as="targetPoint" />
          </mxGeometry>
        </mxCell>
        <mxCell id="yTwchnVELSRqIbRHBMvh-14" value="" style="endArrow=blockThin;html=1;rounded=0;strokeWidth=2;endFill=1;" edge="1" parent="1">
          <mxGeometry width="50" height="50" relative="1" as="geometry">
            <mxPoint x="430" y="120" as="sourcePoint" />
            <mxPoint x="450" y="120" as="targetPoint" />
          </mxGeometry>
        </mxCell>
        <mxCell id="yTwchnVELSRqIbRHBMvh-15" value="" style="endArrow=blockThin;html=1;rounded=0;strokeWidth=2;endFill=1;" edge="1" parent="1">
          <mxGeometry width="50" height="50" relative="1" as="geometry">
            <mxPoint x="530" y="120" as="sourcePoint" />
            <mxPoint x="550" y="120" as="targetPoint" />
          </mxGeometry>
        </mxCell>
        <mxCell id="yTwchnVELSRqIbRHBMvh-16" value="" style="endArrow=blockThin;html=1;rounded=0;strokeWidth=2;endFill=1;" edge="1" parent="1">
          <mxGeometry width="50" height="50" relative="1" as="geometry">
            <mxPoint x="631" y="120" as="sourcePoint" />
            <mxPoint x="651" y="120" as="targetPoint" />
          </mxGeometry>
        </mxCell>
        <mxCell id="yTwchnVELSRqIbRHBMvh-17" value="" style="endArrow=blockThin;html=1;rounded=0;strokeWidth=2;endFill=1;entryX=0.5;entryY=1;entryDx=0;entryDy=0;exitX=0.5;exitY=0;exitDx=0;exitDy=0;" edge="1" parent="1" source="yTwchnVELSRqIbRHBMvh-10" target="yTwchnVELSRqIbRHBMvh-11">
          <mxGeometry width="50" height="50" relative="1" as="geometry">
            <mxPoint x="641" y="170" as="sourcePoint" />
            <mxPoint x="661" y="170" as="targetPoint" />
          </mxGeometry>
        </mxCell>
        <mxCell id="itmVy81XmjJllifuAnmB-3" value="&lt;span style=&quot;font-family: &amp;quot;Times New Roman&amp;quot;; font-size: 14px;&quot;&gt;Autoencoder&lt;/span&gt;" style="text;strokeColor=none;align=center;fillColor=none;html=1;verticalAlign=middle;whiteSpace=wrap;rounded=0;" vertex="1" parent="1">
          <mxGeometry x="355" y="57.5" width="60" height="30" as="geometry" />
        </mxCell>
      </root>
    </mxGraphModel>
  </diagram>
</mxfile>
